<?xml version="1.0" encoding="UTF-8" standalone="no"?>
<!-- Created with Inkscape (http://www.inkscape.org/) -->

<svg
   xmlns:dc="http://purl.org/dc/elements/1.1/"
   xmlns:cc="http://creativecommons.org/ns#"
   xmlns:rdf="http://www.w3.org/1999/02/22-rdf-syntax-ns#"
   xmlns:svg="http://www.w3.org/2000/svg"
   xmlns="http://www.w3.org/2000/svg"
   xmlns:sodipodi="http://sodipodi.sourceforge.net/DTD/sodipodi-0.dtd"
   xmlns:inkscape="http://www.inkscape.org/namespaces/inkscape"
   id="svg4136"
   version="1.1"
   inkscape:version="0.91 r13725"
   xml:space="preserve"
   width="100.82499"
   height="128"
   viewBox="0 0 100.82499 128"
   sodipodi:docname="clipboard.svg"><metadata
     id="metadata4142"><rdf:RDF><cc:Work
         rdf:about=""><dc:format>image/svg+xml</dc:format><dc:type
           rdf:resource="http://purl.org/dc/dcmitype/StillImage" /><dc:title></dc:title></cc:Work></rdf:RDF></metadata><defs
     id="defs4140"><clipPath
       clipPathUnits="userSpaceOnUse"
       id="clipPath4150"><path
         d="m 121.023,400 c 0,-152.838 123.898,-276.736 276.736,-276.736 l 0,0 c 152.837,0 276.737,123.898 276.737,276.736 l 0,0 c 0,152.838 -123.9,276.736 -276.737,276.736 l 0,0 C 244.921,676.736 121.023,552.838 121.023,400"
         id="path4152"
         inkscape:connector-curvature="0" /></clipPath><clipPath
       clipPathUnits="userSpaceOnUse"
       id="clipPath4256"><path
         d="m 401.774,359.682 173.644,0 0,-38.553 -173.644,0 0,38.553 z"
         id="path4258"
         inkscape:connector-curvature="0" /></clipPath><clipPath
       clipPathUnits="userSpaceOnUse"
       id="clipPath4292"><path
         d="M 0,800 800,800 800,0 0,0 0,800 Z"
         id="path4294"
         inkscape:connector-curvature="0" /></clipPath><clipPath
       id="clipPath4585"
       clipPathUnits="userSpaceOnUse"><path
         inkscape:connector-curvature="0"
         id="path4587"
         d="M 0,800 800,800 800,0 0,0 0,800 Z" /></clipPath><clipPath
       id="clipPath4605"
       clipPathUnits="userSpaceOnUse"><path
         inkscape:connector-curvature="0"
         id="path4607"
         d="m 619.532,143.773 c 0,-46.945 38.056,-85.001 85.001,-85.001 l 0,0 c 46.944,0 84.999,38.056 84.999,85.001 l 0,0 c 0,46.944 -38.055,85.001 -84.999,85.001 l 0,0 c -46.945,0 -85.001,-38.057 -85.001,-85.001" /></clipPath><clipPath
       id="clipPath4669"
       clipPathUnits="userSpaceOnUse"><path
         inkscape:connector-curvature="0"
         id="path4671"
         d="M 0,800 800,800 800,0 0,0 0,800 Z" /></clipPath><clipPath
       id="clipPath4685"
       clipPathUnits="userSpaceOnUse"><path
         inkscape:connector-curvature="0"
         id="path4687"
         d="m 10.47,393.123 c 0,-46.943 38.055,-85 84.999,-85 l 0,0 c 46.945,0 85.001,38.057 85.001,85 l 0,0 c 0,46.945 -38.056,85.001 -85.001,85.001 l 0,0 c -46.944,0 -84.999,-38.056 -84.999,-85.001" /></clipPath><clipPath
       id="clipPath4751"
       clipPathUnits="userSpaceOnUse"><path
         inkscape:connector-curvature="0"
         id="path4753"
         d="M 0,800 800,800 800,0 0,0 0,800 Z" /></clipPath><clipPath
       id="clipPath4767"
       clipPathUnits="userSpaceOnUse"><path
         inkscape:connector-curvature="0"
         id="path4769"
         d="m 213.488,393.124 c 0,-46.944 38.056,-85.001 85.001,-85.001 l 0,0 c 46.944,0 84.999,38.057 84.999,85.001 l 0,0 c 0,46.944 -38.055,85 -84.999,85 l 0,0 c -46.945,0 -85.001,-38.056 -85.001,-85" /></clipPath><clipPath
       id="clipPath4849"
       clipPathUnits="userSpaceOnUse"><path
         inkscape:connector-curvature="0"
         id="path4851"
         d="M 0,800 800,800 800,0 0,0 0,800 Z" /></clipPath><clipPath
       id="clipPath4865"
       clipPathUnits="userSpaceOnUse"><path
         inkscape:connector-curvature="0"
         id="path4867"
         d="m 619.533,656.229 c 0,-46.945 38.055,-85.002 85,-85.002 l 0,0 c 46.944,0 85,38.057 85,85.002 l 0,0 c 0,46.944 -38.056,84.999 -85,84.999 l 0,0 c -46.945,0 -85,-38.055 -85,-84.999" /></clipPath><clipPath
       id="clipPath4915"
       clipPathUnits="userSpaceOnUse"><path
         inkscape:connector-curvature="0"
         id="path4917"
         d="M 0,800 800,800 800,0 0,0 0,800 Z" /></clipPath><clipPath
       id="clipPath4931"
       clipPathUnits="userSpaceOnUse"><path
         inkscape:connector-curvature="0"
         id="path4933"
         d="m 619.532,404.134 c 0,-46.945 38.056,-85.001 85.001,-85.001 l 0,0 c 46.944,0 84.999,38.056 84.999,85.001 l 0,0 c 0,46.944 -38.055,85 -84.999,85 l 0,0 c -46.945,0 -85.001,-38.056 -85.001,-85" /></clipPath><clipPath
       id="clipPath5009"
       clipPathUnits="userSpaceOnUse"><path
         inkscape:connector-curvature="0"
         id="path5011"
         d="M 0,800 800,800 800,0 0,0 0,800 Z" /></clipPath><clipPath
       id="clipPath5025"
       clipPathUnits="userSpaceOnUse"><path
         inkscape:connector-curvature="0"
         id="path5027"
         d="m 416.512,143.773 c 0,-46.944 38.055,-85 85,-85 l 0,0 c 46.944,0 85,38.056 85,85 l 0,0 c 0,46.945 -38.056,85.001 -85,85.001 l 0,0 c -46.945,0 -85,-38.056 -85,-85.001" /></clipPath><clipPath
       id="clipPath5071"
       clipPathUnits="userSpaceOnUse"><path
         inkscape:connector-curvature="0"
         id="path5073"
         d="M 0,800 800,800 800,0 0,0 0,800 Z" /></clipPath><clipPath
       id="clipPath5087"
       clipPathUnits="userSpaceOnUse"><path
         inkscape:connector-curvature="0"
         id="path5089"
         d="m 213.49,143.773 c 0,-46.943 38.055,-84.999 85,-84.999 l 0,0 c 46.944,0 85,38.056 85,84.999 l 0,0 c 0,46.946 -38.056,85.002 -85,85.002 l 0,0 c -46.945,0 -85,-38.056 -85,-85.002" /></clipPath><clipPath
       id="clipPath5155"
       clipPathUnits="userSpaceOnUse"><path
         inkscape:connector-curvature="0"
         id="path5157"
         d="M 0,800 800,800 800,0 0,0 0,800 Z" /></clipPath><clipPath
       id="clipPath5171"
       clipPathUnits="userSpaceOnUse"><path
         inkscape:connector-curvature="0"
         id="path5173"
         d="m 416.512,404.134 c 0,-46.945 38.055,-85.001 85,-85.001 l 0,0 c 46.944,0 85,38.056 85,85.001 l 0,0 c 0,46.944 -38.056,85 -85,85 l 0,0 c -46.945,0 -85,-38.056 -85,-85" /></clipPath><clipPath
       id="clipPath5235"
       clipPathUnits="userSpaceOnUse"><path
         inkscape:connector-curvature="0"
         id="path5237"
         d="M 0,800 800,800 800,0 0,0 0,800 Z" /></clipPath><clipPath
       id="clipPath5251"
       clipPathUnits="userSpaceOnUse"><path
         inkscape:connector-curvature="0"
         id="path5253"
         d="m 416.51,653.483 c 0,-46.945 38.055,-85.002 85,-85.002 l 0,0 c 46.944,0 85,38.057 85,85.002 l 0,0 c 0,46.944 -38.056,85 -85,85 l 0,0 c -46.945,0 -85,-38.056 -85,-85" /></clipPath><clipPath
       id="clipPath5319"
       clipPathUnits="userSpaceOnUse"><path
         inkscape:connector-curvature="0"
         id="path5321"
         d="M 0,800 800,800 800,0 0,0 0,800 Z" /></clipPath><clipPath
       id="clipPath5335"
       clipPathUnits="userSpaceOnUse"><path
         inkscape:connector-curvature="0"
         id="path5337"
         d="m 213.489,656.227 c 0,-46.945 38.055,-85.002 85,-85.002 l 0,0 c 46.945,0 84.999,38.057 84.999,85.002 l 0,0 c 0,46.944 -38.054,85 -84.999,85 l 0,0 c -46.945,0 -85,-38.056 -85,-85" /></clipPath><clipPath
       id="clipPath5407"
       clipPathUnits="userSpaceOnUse"><path
         inkscape:connector-curvature="0"
         id="path5409"
         d="M 0,800 800,800 800,0 0,0 0,800 Z" /></clipPath><clipPath
       id="clipPath5423"
       clipPathUnits="userSpaceOnUse"><path
         inkscape:connector-curvature="0"
         id="path5425"
         d="m 10.47,143.773 c 0,-46.945 38.054,-85.001 84.999,-85.001 l 0,0 c 46.945,0 85.001,38.056 85.001,85.001 l 0,0 c 0,46.945 -38.056,85.001 -85.001,85.001 l 0,0 c -46.945,0 -84.999,-38.056 -84.999,-85.001" /></clipPath><clipPath
       id="clipPath5495"
       clipPathUnits="userSpaceOnUse"><path
         inkscape:connector-curvature="0"
         id="path5497"
         d="M 0,800 800,800 800,0 0,0 0,800 Z" /></clipPath><clipPath
       id="clipPath5511"
       clipPathUnits="userSpaceOnUse"><path
         inkscape:connector-curvature="0"
         id="path5513"
         d="m 10.471,656.227 c 0,-46.945 38.054,-85.001 84.998,-85.001 l 0,0 c 46.944,0 85,38.056 85,85.001 l 0,0 c 0,46.944 -38.056,85 -85,85 l 0,0 c -46.944,0 -84.998,-38.056 -84.998,-85" /></clipPath><clipPath
       id="clipPath5587"
       clipPathUnits="userSpaceOnUse"><path
         inkscape:connector-curvature="0"
         id="path5589"
         d="M 0,800 800,800 800,0 0,0 0,800 Z" /></clipPath></defs><sodipodi:namedview
     pagecolor="#ffffff"
     bordercolor="#666666"
     borderopacity="1"
     objecttolerance="10"
     gridtolerance="10"
     guidetolerance="10"
     inkscape:pageopacity="0"
     inkscape:pageshadow="2"
     inkscape:window-width="1540"
     inkscape:window-height="890"
     id="namedview4138"
     showgrid="false"
     inkscape:zoom="2.884"
     inkscape:cx="66.482626"
     inkscape:cy="67.999987"
     inkscape:window-x="0"
     inkscape:window-y="0"
     inkscape:window-maximized="0"
     inkscape:current-layer="g4144"
     fit-margin-top="0"
     fit-margin-left="0"
     fit-margin-right="0"
     fit-margin-bottom="0" /><g
     id="g4144"
     inkscape:groupmode="layer"
     inkscape:label="106657-ON3N9V-471"
     transform="matrix(1.25,0,0,-1.25,-482.98401,375.48986)"><g
       id="g4154"
       transform="translate(674.4961,400)" /><g
       id="g6810"
       transform="matrix(0.29344565,0,0,0.29344565,308.8194,136.04736)"><g
         transform="translate(268.3345,211.0937)"
         id="g4162"><path
           inkscape:connector-curvature="0"
           id="path4164"
           style="fill:#4c69ba;fill-opacity:1;fill-rule:nonzero;stroke:none"
           d="m 0,0 c -2.2,0 -4,1.8 -4,4 l 0,340.957 c 0,2.2 1.8,4 4,4 l 266.872,0 c 2.2,0 4,-1.8 4,-4 L 270.872,4 c 0,-2.2 -1.8,-4 -4,-4 L 0,0 Z" /></g><path
         inkscape:connector-curvature="0"
         id="path4166"
         style="fill:#eceded;fill-opacity:1;fill-rule:nonzero;stroke:none"
         d="m 526.081,547.255 -240.761,0 0,-318.312 240.761,0 0,318.312 z" /><path
         inkscape:connector-curvature="0"
         id="path4172"
         style="fill:#ffffff;fill-opacity:1;fill-rule:nonzero;stroke:none"
         d="m 521.356,228.943 -239.173,0 0,313.258 239.173,0 0,-313.258 z" /><path
         inkscape:connector-curvature="0"
         id="path4174"
         style="fill:#999999;fill-opacity:1;fill-rule:nonzero;stroke:none"
         d="m 453.979,560.051 -104.419,0 0,-25.592 104.419,0 0,25.592 z" /><path
         inkscape:connector-curvature="0"
         id="path4176"
         style="fill:#eceded;fill-opacity:1;fill-rule:nonzero;stroke:none"
         d="m 502.029,452.954 -161.538,0 0,36.293 161.538,0 0,-36.293 z" /><path
         inkscape:connector-curvature="0"
         id="path4178"
         style="fill:#eceded;fill-opacity:1;fill-rule:nonzero;stroke:none"
         d="m 332.459,452.954 -36.294,0 0,36.293 36.294,0 0,-36.293 z" /><path
         inkscape:connector-curvature="0"
         id="path4180"
         style="fill:#eceded;fill-opacity:1;fill-rule:nonzero;stroke:none"
         d="m 502.029,408.331 -161.538,0 0,36.293 161.538,0 0,-36.293 z" /><path
         inkscape:connector-curvature="0"
         id="path4182"
         style="fill:#eceded;fill-opacity:1;fill-rule:nonzero;stroke:none"
         d="m 332.459,408.331 -36.294,0 0,36.293 36.294,0 0,-36.293 z" /><path
         inkscape:connector-curvature="0"
         id="path4184"
         style="fill:#eceded;fill-opacity:1;fill-rule:nonzero;stroke:none"
         d="m 502.029,363.707 -161.538,0 0,36.293 161.538,0 0,-36.293 z" /><path
         inkscape:connector-curvature="0"
         id="path4186"
         style="fill:#eceded;fill-opacity:1;fill-rule:nonzero;stroke:none"
         d="m 332.459,363.707 -36.294,0 0,36.293 36.294,0 0,-36.293 z" /><path
         inkscape:connector-curvature="0"
         id="path4188"
         style="fill:#eceded;fill-opacity:1;fill-rule:nonzero;stroke:none"
         d="m 502.029,319.082 -161.538,0 0,36.295 161.538,0 0,-36.295 z" /><path
         inkscape:connector-curvature="0"
         id="path4190"
         style="fill:#eceded;fill-opacity:1;fill-rule:nonzero;stroke:none"
         d="m 332.459,319.082 -36.294,0 0,36.295 36.294,0 0,-36.295 z" /><path
         inkscape:connector-curvature="0"
         id="path4192"
         style="fill:#eceded;fill-opacity:1;fill-rule:nonzero;stroke:none"
         d="m 502.029,274.459 -161.538,0 0,36.293 161.538,0 0,-36.293 z" /><path
         inkscape:connector-curvature="0"
         id="path4194"
         style="fill:#eceded;fill-opacity:1;fill-rule:nonzero;stroke:none"
         d="m 332.459,274.459 -36.294,0 0,36.293 36.294,0 0,-36.293 z" /><g
         transform="translate(327.7051,478.3638)"
         id="g4196"><path
           inkscape:connector-curvature="0"
           id="path4198"
           style="fill:#76ba36;fill-opacity:1;fill-rule:nonzero;stroke:none"
           d="m 0,0 -2.991,2.991 -13.016,-13.016 -7.787,7.787 -2.991,-2.991 7.787,-7.786 -0.023,-0.024 2.991,-2.991 0.023,0.023 0.023,-0.023 2.991,2.991 -0.023,0.024 L 0,0 Z" /></g><g
         transform="translate(327.7051,431.6577)"
         id="g4200"><path
           inkscape:connector-curvature="0"
           id="path4202"
           style="fill:#76ba36;fill-opacity:1;fill-rule:nonzero;stroke:none"
           d="m 0,0 -2.991,2.991 -13.016,-13.016 -7.787,7.787 -2.991,-2.991 7.787,-7.786 -0.023,-0.024 2.991,-2.991 0.023,0.023 0.023,-0.023 2.991,2.991 -0.023,0.024 L 0,0 Z" /></g><g
         transform="translate(327.7051,388.373)"
         id="g4204"><path
           inkscape:connector-curvature="0"
           id="path4206"
           style="fill:#76ba36;fill-opacity:1;fill-rule:nonzero;stroke:none"
           d="m 0,0 -2.991,2.991 -13.016,-13.016 -7.787,7.787 -2.991,-2.992 7.787,-7.786 -0.023,-0.023 2.991,-2.99 0.023,0.021 0.023,-0.021 2.991,2.99 -0.023,0.023 L 0,0 Z" /></g><g
         transform="translate(321.5674,333.7246)"
         id="g4208"><path
           inkscape:connector-curvature="0"
           id="path4210"
           style="fill:#ff473b;fill-opacity:1;fill-rule:nonzero;stroke:none"
           d="m 0,0 -3.506,3.506 6.52,6.519 -2.991,2.993 -6.519,-6.52 -6.52,6.52 -2.991,-2.993 6.52,-6.519 -3.506,-3.506 -2.99,-2.99 -0.024,-0.024 2.991,-2.992 0.023,0.024 0.023,-0.024 2.991,2.992 -0.023,0.024 3.506,3.506 3.505,-3.506 -0.024,-0.024 2.992,-2.992 L 0,-5.982 0.023,-6.006 3.014,-3.014 2.991,-2.99 0,0 Z" /></g><g
         transform="translate(321.5674,289.1016)"
         id="g4212"><path
           inkscape:connector-curvature="0"
           id="path4214"
           style="fill:#ff473b;fill-opacity:1;fill-rule:nonzero;stroke:none"
           d="m 0,0 -3.506,3.504 6.52,6.519 -2.991,2.993 -6.519,-6.52 -6.52,6.52 -2.991,-2.993 6.52,-6.519 -3.506,-3.504 -2.99,-2.992 -0.024,-0.024 2.991,-2.99 0.023,0.022 0.023,-0.022 2.991,2.99 -0.023,0.024 3.506,3.506 3.505,-3.506 -0.024,-0.024 2.992,-2.99 L 0,-5.984 0.023,-6.006 3.014,-3.016 2.991,-2.992 0,0 Z" /></g><g
         transform="translate(354.5332,528.1191)"
         id="g4236"><path
           inkscape:connector-curvature="0"
           id="path4238"
           style="fill:#999999;fill-opacity:1;fill-rule:nonzero;stroke:none"
           d="m 0,0 32.642,0 0,-2.461 c 0,-7.765 6.317,-14.082 14.083,-14.082 7.764,0 14.081,6.317 14.081,14.082 l 0,2.461 33.769,0 0,7.157 L 57.325,6.854 56.6,7.57 c -2.654,2.612 -6.161,4.051 -9.875,4.051 -3.804,0 -7.37,-1.497 -10.041,-4.217 L 35.969,6.676 0,6.378 0,0 Z m 46.725,-21.465 c -9.646,0 -17.635,7.222 -18.846,16.543 l -32.801,0 0,16.181 38.849,0.322 c 3.509,3.208 8.013,4.962 12.798,4.962 4.664,0 9.086,-1.68 12.561,-4.751 l 40.211,0.327 0,-17.041 -33.928,0 c -1.211,-9.321 -9.201,-16.543 -18.844,-16.543" /></g></g></g></svg>